<?xml version="1.0" encoding="UTF-8" standalone="no"?>
<svg
   version="1.1"
   viewBox="0.00 0.00 1528.00 1371.00"
   id="svg99"
   sodipodi:docname="وزارة الصحة العراقية.svg"
   inkscape:version="1.3.2 (091e20ef0f, 2023-11-25)"
   xmlns:inkscape="http://www.inkscape.org/namespaces/inkscape"
   xmlns:sodipodi="http://sodipodi.sourceforge.net/DTD/sodipodi-0.dtd"
   xmlns="http://www.w3.org/2000/svg"
   xmlns:svg="http://www.w3.org/2000/svg">
  <defs
     id="defs99" />
  <sodipodi:namedview
     id="namedview99"
     pagecolor="#ffffff"
     bordercolor="#000000"
     borderopacity="0.25"
     inkscape:showpageshadow="2"
     inkscape:pageopacity="0.0"
     inkscape:pagecheckerboard="true"
     inkscape:deskcolor="#d1d1d1"
     inkscape:zoom="0.4895288"
     inkscape:cx="1172.5561"
     inkscape:cy="1037.7326"
     inkscape:window-width="1920"
     inkscape:window-height="1011"
     inkscape:window-x="0"
     inkscape:window-y="0"
     inkscape:window-maximized="1"
     inkscape:current-layer="svg99" />
  <g
     stroke-width="2.00"
     fill="none"
     stroke-linecap="butt"
     id="g24">
    <path
       stroke="#002f01"
       vector-effect="non-scaling-stroke"
       d="   M 738.55 587.73   Q 737.06 589.57 736.42 591.77   Q 736.27 592.29 736.65 591.90   Q 738.33 590.19 739.21 587.74"
       id="path1" />
    <path
       stroke="#002f01"
       vector-effect="non-scaling-stroke"
       d="   M 819.46 612.52   Q 817.91 612.98 816.71 614.06   Q 816.29 614.44 816.85 614.37   Q 818.39 614.18 819.59 613.06"
       id="path2" />
    <path
       stroke="#002f01"
       vector-effect="non-scaling-stroke"
       d="   M 864.28 658.58   Q 863.26 658.70 862.35 659.24   Q 861.82 659.56 862.42 659.71   Q 863.22 659.92 864.31 659.26"
       id="path3" />
    <path
       stroke="#002f01"
       vector-effect="non-scaling-stroke"
       d="   M 906.62 684.04   L 906.59 691.77"
       id="path4" />
    <path
       stroke="#002f01"
       vector-effect="non-scaling-stroke"
       d="   M 770.79 720.59   Q 766.82 720.33 763.21 722.13"
       id="path5" />
    <path
       stroke="#002f01"
       vector-effect="non-scaling-stroke"
       d="   M 735.23 736.01   Q 727.75 741.41 721.91 750.90   Q 719.92 754.13 719.54 756.26"
       id="path6" />
    <path
       stroke="#002f01"
       vector-effect="non-scaling-stroke"
       d="   M 719.54 756.26   Q 718.74 756.83 718.25 756.60   Q 715.73 755.45 713.01 754.81   Q 708.90 753.85 704.75 753.11   Q 701.90 752.60 700.40 752.58   C 698.72 752.56 697.21 751.83 695.52 751.77   Q 687.10 751.43 678.23 751.10   Q 676.29 751.03 674.17 751.47   Q 671.77 751.97 669.68 751.34   A 1.09 1.08 82.8 0 1 669.04 750.84   Q 667.23 747.82 664.41 745.68"
       id="path7" />
    <path
       stroke="#002f01"
       vector-effect="non-scaling-stroke"
       d="   M 578.34 721.23   Q 565.51 719.96 552.45 720.90"
       id="path8" />
    <path
       stroke="#002f01"
       vector-effect="non-scaling-stroke"
       d="   M 519.48 663.21   L 526.30 662.99   Q 526.44 662.99 526.39 662.85   L 526.29 662.57   A 0.31 0.31 0.0 0 0 526.01 662.36   L 519.20 662.08"
       id="path9" />
    <path
       stroke="#002f01"
       vector-effect="non-scaling-stroke"
       d="   M 567.57 614.45   Q 568.90 615.45 570.64 615.79   Q 571.19 615.90 570.81 615.49   Q 569.80 614.40 568.11 614.07"
       id="path10" />
    <path
       stroke="#002f01"
       vector-effect="non-scaling-stroke"
       d="   M 646.05 587.44   Q 647.17 590.23 648.27 591.46   Q 649.86 593.23 648.81 591.09   Q 647.50 588.43 646.53 587.03"
       id="path11" />
    <path
       stroke="#002f01"
       vector-effect="non-scaling-stroke"
       d="   M 712.49 826.27   Q 711.60 822.82 712.66 821.18"
       id="path12" />
    <path
       stroke="#715e0d"
       vector-effect="non-scaling-stroke"
       d="   M 712.66 821.18   Q 712.82 821.49 713.23 821.31   C 723.54 816.56 734.50 810.72 742.68 802.66   Q 747.09 798.33 746.80 791.57   C 745.92 770.87 729.80 759.84 711.49 755.27   C 696.50 751.52 680.30 751.32 664.93 752.48   Q 646.06 753.89 627.14 757.45   C 624.10 758.02 621.84 759.16 619.48 760.97   Q 618.55 761.69 618.55 762.79   A 1.56 1.56 0.0 0 0 620.17 764.35   C 635.63 763.71 718.56 762.02 722.91 781.83   C 724.18 787.62 717.71 793.24 713.21 795.96   Q 712.90 796.15 712.62 796.79"
       id="path13" />
    <path
       stroke="#002f01"
       vector-effect="non-scaling-stroke"
       d="   M 712.62 796.79   Q 712.52 796.91 712.38 796.84   Q 712.13 796.72 712.13 796.45   Q 712.08 789.85 711.90 783.00   Q 711.78 778.54 712.95 774.32   A 0.92 0.91 17.7 0 0 712.37 773.21   Q 702.98 769.84 693.61 768.41   Q 685.95 767.24 678.67 766.47   A 1.15 1.14 -6.8 0 0 677.47 767.99   C 678.87 771.90 679.44 775.96 679.47 780.10   Q 679.69 807.16 679.69 835.10   Q 679.69 836.03 679.49 836.93   Q 679.22 838.10 680.23 838.65   C 682.13 839.67 683.68 839.55 685.69 839.94   Q 699.37 842.56 710.91 846.67   A 1.09 1.09 0.0 0 0 712.36 845.66   L 712.45 837.54"
       id="path14" />
    <path
       stroke="#002f01"
       vector-effect="non-scaling-stroke"
       d="   M 712.45 949.51   L 712.39 942.34   A 1.08 1.08 0.0 0 0 711.13 941.29   Q 707.80 941.87 704.21 942.71   C 701.20 943.41 698.20 943.15 695.31 943.88   C 693.39 944.37 691.66 943.88 689.75 944.40   C 688.05 944.85 686.36 944.50 684.62 944.69   Q 683.80 944.79 684.58 945.07   Q 685.72 945.48 687.11 945.55   Q 687.64 945.58 688.09 945.85   Q 689.47 946.66 691.06 946.60   Q 691.65 946.58 692.16 946.86   Q 693.50 947.59 694.97 947.61   C 696.34 947.63 697.32 948.27 698.60 948.44   Q 700.04 948.63 701.38 948.97   Q 707.85 950.62 711.25 951.32   Q 712.36 951.55 712.58 950.00"
       id="path15" />
    <path
       stroke="#002f01"
       vector-effect="non-scaling-stroke"
       d="   M 738.83 969.94   Q 730.61 967.57 723.59 962.83   Q 721.05 961.11 719.52 961.13   Q 717.28 961.16 715.05 961.25   Q 706.83 961.61 697.30 961.17   Q 695.48 961.09 693.75 960.76   Q 692.01 960.44 690.18 960.30   Q 687.53 960.12 684.86 959.57   Q 680.20 958.62 675.73 957.47   A 1.77 1.76 -63.8 0 0 673.91 958.10   Q 672.30 960.17 670.48 961.74   Q 662.34 968.77 652.49 971.81"
       id="path16" />
    <path
       stroke="#718d0e"
       vector-effect="non-scaling-stroke"
       d="   M 712.66 821.18   L 712.62 796.79"
       id="path17" />
    <path
       stroke="#002f01"
       vector-effect="non-scaling-stroke"
       d="   M 753.99 975.19   Q 754.21 975.67 754.95 975.91   Q 755.51 976.09 755.05 976.47   Q 754.79 976.68 754.24 976.79   Q 752.57 977.12 750.86 977.13   Q 696.18 977.34 641.50 977.36   Q 638.80 977.37 639.27 975.95"
       id="path18" />
    <path
       stroke="#002f01"
       vector-effect="non-scaling-stroke"
       d="   M 712.67 867.97   Q 712.90 870.18 711.33 868.49   Q 711.00 868.13 710.50 868.13   L 704.63 868.13   Q 704.37 868.13 704.26 867.88   Q 704.20 867.72 704.04 867.70   Q 698.30 866.97 691.27 865.51   Q 687.96 864.83 684.70 863.99   Q 682.73 863.48 680.98 863.24   A 1.04 1.03 -85.9 0 0 679.80 864.27   L 679.87 898.00   A 0.83 0.83 0.0 0 0 680.67 898.83   C 682.27 898.89 683.75 898.80 685.37 899.11   Q 688.23 899.68 691.17 900.08   Q 701.25 901.44 711.23 905.10   A 0.84 0.84 0.0 0 0 712.36 904.30   L 712.15 892.28   Q 712.14 891.88 712.55 891.82   Q 713.80 891.66 712.75 891.41"
       id="path19" />
    <path
       stroke="#715e0d"
       vector-effect="non-scaling-stroke"
       d="   M 712.75 891.41   Q 727.00 888.11 736.09 880.87   Q 744.24 874.39 739.83 865.38   C 737.94 861.51 733.21 857.84 729.39 855.60   Q 721.50 850.98 712.12 847.80   Q 695.21 842.08 675.76 838.76   Q 672.94 838.28 675.69 837.47   Q 676.96 837.10 678.27 836.59   Q 678.98 836.32 678.98 835.56   L 678.99 812.96   A 0.47 0.47 0.0 0 0 678.36 812.52   Q 666.83 816.79 654.77 821.28   C 651.74 822.41 645.57 824.47 644.21 827.69   C 638.03 842.29 651.73 851.89 663.14 856.37   Q 680.77 863.29 699.48 866.27   Q 701.32 866.56 706.07 867.04   Q 709.66 867.39 712.67 867.97"
       id="path20" />
    <path
       stroke="#718d0e"
       vector-effect="non-scaling-stroke"
       d="   M 712.75 891.41   L 712.67 867.97"
       id="path21" />
    <path
       stroke="#715e0d"
       vector-effect="non-scaling-stroke"
       d="   M 701.74 924.23   C 688.08 923.86 656.15 921.89 654.20 942.23   C 653.98 944.56 657.15 947.17 658.94 948.44   Q 669.38 955.82 683.39 958.49   Q 700.70 961.78 719.01 960.34   Q 727.63 959.66 736.91 958.73   A 0.38 0.38 0.0 0 0 737.20 958.17   Q 737.08 957.96 736.85 957.91   Q 706.72 951.06 678.44 944.50   Q 676.12 943.96 678.50 943.98   Q 698.56 944.16 718.46 938.70   Q 723.77 937.24 727.29 933.59   C 734.40 926.21 731.31 918.05 723.96 912.56   Q 718.88 908.75 712.58 906.36   Q 697.63 900.69 679.56 899.42   Q 678.97 899.38 678.97 898.78   L 678.98 876.22   A 0.62 0.61 83.0 0 0 678.22 875.62   C 671.01 877.37 642.27 884.99 646.14 895.99   Q 649.36 905.14 659.30 910.86   C 672.00 918.16 686.97 921.94 701.76 924.09   Q 702.93 924.26 701.74 924.23"
       id="path22" />
    <path
       stroke="#002f01"
       vector-effect="non-scaling-stroke"
       d="   M 687.51 922.43   Q 687.06 922.07 686.50 921.92   Q 684.70 921.46 683.01 921.28   A 2.06 2.01 -21.3 0 1 681.95 920.83   Q 681.13 920.16 680.37 920.61   A 1.38 1.38 0.0 0 0 679.68 921.87   Q 679.76 923.99 681.47 923.68   Q 683.74 923.28 685.85 923.44   Q 687.09 923.54 688.19 922.91   Q 688.33 922.83 688.20 922.74   Q 688.05 922.65 687.87 922.61   Q 687.67 922.56 687.51 922.43"
       id="path23" />
    <path
       stroke="#715e0d"
       vector-effect="non-scaling-stroke"
       d="   M 624.22 762.30   A 0.72 0.72 0.0 0 0 624.42 761.13   Q 623.91 760.63 623.23 761.03   A 0.70 0.69 -35.4 0 0 623.05 762.08   Q 623.53 762.63 624.22 762.30"
       id="path24" />
  </g>
  <path
     fill="#f10201"
     d="   M 600.69 1257.95   Q 600.97 1258.05 601.30 1258.11   Q 601.34 1258.12 601.38 1258.14   Q 601.42 1258.16 601.41 1258.21   Q 601.36 1258.34 601.24 1258.30   Q 599.77 1257.80 598.39 1257.54   Q 596.65 1257.21 595.01 1256.72   Q 452.33 1213.76 354.90 1103.63   Q 278.86 1017.68 246.06 903.42   Q 243.39 894.14 241.00 883.87   Q 211.18 755.90 245.57 629.35   Q 248.19 619.70 251.26 610.20   Q 291.98 484.15 387.89 393.02   Q 395.12 386.15 402.47 379.79   Q 502.65 293.17 631.17 265.14   C 770.40 234.77 919.22 265.17 1035.33 348.07   Q 1135.63 419.68 1193.33 529.42   Q 1193.40 529.57 1193.26 529.65   L 1193.01 529.79   Q 1193.00 529.79 1192.99 529.78   Q 1165.33 483.03 1127.94 443.50   Q 1039.63 350.12 917.13 310.24   C 869.21 294.64 817.06 286.13 765.22 286.17   Q 640.93 286.29 530.74 343.93   Q 521.55 348.74 513.07 353.71   Q 406.70 416.03 341.11 519.67   Q 309.49 569.62 289.67 628.55   Q 286.40 638.29 283.67 647.99   Q 248.21 774.11 277.55 899.81   Q 303.37 1010.45 376.14 1100.91   Q 382.06 1108.27 389.24 1116.35   Q 476.60 1214.66 600.69 1257.95   Z"
     id="path25"
     inkscape:label="Crescent" />
  <g
     id="g107"
     inkscape:label="Tree and Snake">
    <g
       id="g105"
       inkscape:label="Tree">
      <path
         fill="#005d02"
         d="   M 738.55 587.73   Q 737.06 589.57 736.42 591.77   Q 736.27 592.29 736.65 591.90   Q 738.33 590.19 739.21 587.74   Q 750.76 570.58 766.33 557.11   C 784.21 541.63 807.40 533.73 829.30 546.15   Q 834.73 549.23 838.05 553.32   Q 851.92 570.42 841.79 588.79   Q 834.31 602.35 819.46 612.52   Q 817.91 612.98 816.71 614.06   Q 816.29 614.44 816.85 614.37   Q 818.39 614.18 819.59 613.06   C 834.95 607.08 853.10 602.53 869.53 605.29   C 877.60 606.64 886.87 611.53 888.81 620.22   C 892.55 637.04 877.49 651.35 864.28 658.58   Q 863.26 658.70 862.35 659.24   Q 861.82 659.56 862.42 659.71   Q 863.22 659.92 864.31 659.26   C 882.61 657.46 902.71 663.33 906.62 684.04   L 906.59 691.77   Q 903.07 711.12 885.91 716.64   Q 881.58 718.03 873.92 718.19   Q 824.84 719.16 775.76 720.28   Q 773.25 720.33 770.79 720.59   Q 766.82 720.33 763.21 722.13   Q 747.71 725.90 735.23 736.01   Q 727.75 741.41 721.91 750.90   Q 719.92 754.13 719.54 756.26   Q 718.74 756.83 718.25 756.60   Q 715.73 755.45 713.01 754.81   Q 708.90 753.85 704.75 753.11   Q 701.90 752.60 700.40 752.58   C 698.72 752.56 697.21 751.83 695.52 751.77   Q 687.10 751.43 678.23 751.10   Q 676.29 751.03 674.17 751.47   Q 671.77 751.97 669.68 751.34   A 1.09 1.08 82.8 0 1 669.04 750.84   Q 667.23 747.82 664.41 745.68   Q 646.57 728.79 622.49 722.43   Q 621.36 722.13 620.13 722.12   Q 599.17 721.88 578.34 721.23   Q 565.51 719.96 552.45 720.90   Q 530.61 720.55 508.75 720.11   Q 504.47 720.03 496.29 718.00   C 483.97 714.95 470.90 708.35 470.08 694.71   Q 469.42 683.68 477.49 676.78   Q 481.39 673.45 486.94 671.04   Q 502.45 664.33 519.48 663.21   L 526.30 662.99   Q 526.44 662.99 526.39 662.85   L 526.29 662.57   A 0.31 0.31 0.0 0 0 526.01 662.36   L 519.20 662.08   C 505.91 659.59 493.85 651.88 489.70 638.53   Q 487.83 632.49 488.79 627.05   C 494.28 596.07 548.87 608.72 567.57 614.45   Q 568.90 615.45 570.64 615.79   Q 571.19 615.90 570.81 615.49   Q 569.80 614.40 568.11 614.07   C 557.28 607.18 546.26 597.19 541.13 585.14   C 535.48 571.90 540.28 555.37 553.35 548.02   Q 568.02 539.77 582.51 541.31   C 599.10 543.07 614.93 553.20 626.74 565.01   Q 639.08 577.34 646.05 587.44   Q 647.17 590.23 648.27 591.46   Q 649.86 593.23 648.81 591.09   Q 647.50 588.43 646.53 587.03   C 640.45 573.37 636.02 557.18 636.83 542.64   C 637.95 522.48 649.38 508.00 668.01 500.90   Q 690.63 492.28 713.40 497.65   Q 726.72 500.80 734.64 507.65   C 756.70 526.73 748.40 564.38 738.55 587.73   Z"
         id="path26" />
      <path
         fill="#000000"
         d="   M 646.53 587.03   Q 647.50 588.43 648.81 591.09   Q 649.86 593.23 648.27 591.46   Q 647.17 590.23 646.05 587.44   Q 646.05 587.65 646.22 587.71   A 0.27 0.27 0.0 0 0 646.57 587.50   Q 646.61 587.28 646.53 587.03   Z"
         id="path27" />
      <path
         fill="#000000"
         d="   M 738.55 587.73   L 738.50 588.19   Q 738.47 588.43 738.65 588.26   L 739.21 587.74   Q 738.33 590.19 736.65 591.90   Q 736.27 592.29 736.42 591.77   Q 737.06 589.57 738.55 587.73   Z"
         id="path28" />
      <path
         fill="#000000"
         d="   M 819.46 612.52   Q 819.61 612.72 819.59 613.06   Q 818.39 614.18 816.85 614.37   Q 816.29 614.44 816.71 614.06   Q 817.91 612.98 819.46 612.52   Z"
         id="path29" />
      <path
         fill="#000000"
         d="   M 568.11 614.07   Q 569.80 614.40 570.81 615.49   Q 571.19 615.90 570.64 615.79   Q 568.90 615.45 567.57 614.45   Q 568.34 614.42 568.11 614.07   Z"
         id="path30" />
      <path
         fill="#000000"
         d="   M 864.28 658.58   Q 864.10 658.75 863.88 658.90   Q 863.29 659.30 863.78 659.33   Q 863.97 659.35 864.31 659.26   Q 863.22 659.92 862.42 659.71   Q 861.82 659.56 862.35 659.24   Q 863.26 658.70 864.28 658.58   Z"
         id="path31" />
      <path
         fill="#000000"
         d="   M 519.20 662.08   L 526.01 662.36   A 0.31 0.31 0.0 0 1 526.29 662.57   L 526.39 662.85   Q 526.44 662.99 526.30 662.99   L 519.48 663.21   L 522.36 662.90   Q 522.42 662.90 522.36 662.88   L 519.20 662.08   Z"
         id="path32" />
      <path
         fill="#000000"
         d="   M 906.62 684.04   Q 907.52 687.97 906.59 691.77   L 906.62 684.04   Z"
         id="path33" />
      <path
         fill="#000000"
         d="   M 578.34 721.23   L 552.45 720.90   Q 565.51 719.96 578.34 721.23   Z"
         id="path34" />
      <path
         fill="#000000"
         d="   M 770.79 720.59   L 763.21 722.13   Q 766.82 720.33 770.79 720.59   Z"
         id="path35" />
      <path
         fill="#000000"
         d="   M 735.23 736.01   Q 725.63 744.86 719.54 756.26   Q 719.92 754.13 721.91 750.90   Q 727.75 741.41 735.23 736.01   Z"
         id="path36" />
      <path
         fill="#005d02"
         d="   M 712.62 796.79   L 712.66 821.18   Q 711.60 822.82 712.49 826.27   L 712.45 837.54   L 712.36 845.66   A 1.09 1.09 0.0 0 1 710.91 846.67   Q 699.37 842.56 685.69 839.94   C 683.68 839.55 682.13 839.67 680.23 838.65   Q 679.22 838.10 679.49 836.93   Q 679.69 836.03 679.69 835.10   Q 679.69 807.16 679.47 780.10   C 679.44 775.96 678.87 771.90 677.47 767.99   A 1.15 1.14 -6.8 0 1 678.67 766.47   Q 685.95 767.24 693.61 768.41   Q 702.98 769.84 712.37 773.21   A 0.92 0.91 17.7 0 1 712.95 774.32   Q 711.78 778.54 711.90 783.00   Q 712.08 789.85 712.13 796.45   Q 712.13 796.72 712.38 796.84   Q 712.52 796.91 712.62 796.79   Z"
         id="path40" />
      <path
         fill="#005d02"
         d="   M 712.67 867.97   L 712.75 891.41   Q 713.80 891.66 712.55 891.82   Q 712.14 891.88 712.15 892.28   L 712.36 904.30   A 0.84 0.84 0.0 0 1 711.23 905.10   Q 701.25 901.44 691.17 900.08   Q 688.23 899.68 685.37 899.11   C 683.75 898.80 682.27 898.89 680.67 898.83   A 0.83 0.83 0.0 0 1 679.87 898.00   L 679.80 864.27   A 1.04 1.03 -85.9 0 1 680.98 863.24   Q 682.73 863.48 684.70 863.99   Q 687.96 864.83 691.27 865.51   Q 698.30 866.97 704.04 867.70   Q 704.20 867.72 704.26 867.88   Q 704.37 868.13 704.63 868.13   L 710.50 868.13   Q 711.00 868.13 711.33 868.49   Q 712.90 870.18 712.67 867.97   Z"
         id="path57" />
      <path
         fill="#005d02"
         d="   M 687.87 922.61   Q 688.05 922.65 688.20 922.74   Q 688.33 922.83 688.19 922.91   Q 687.09 923.54 685.85 923.44   Q 683.74 923.28 681.47 923.68   Q 679.76 923.99 679.68 921.87   A 1.38 1.38 0.0 0 1 680.37 920.61   Q 681.13 920.16 681.95 920.83   A 2.06 2.01 -21.3 0 0 683.01 921.28   Q 684.70 921.46 686.50 921.92   Q 687.06 922.07 687.51 922.43   Q 687.67 922.56 687.87 922.61   Z"
         id="path60" />
      <path
         fill="#005d02"
         d="   M 712.45 949.51   Q 712.46 949.78 712.58 950.00   Q 712.36 951.55 711.25 951.32   Q 707.85 950.62 701.38 948.97   Q 700.04 948.63 698.60 948.44   C 697.32 948.27 696.34 947.63 694.97 947.61   Q 693.50 947.59 692.16 946.86   Q 691.65 946.58 691.06 946.60   Q 689.47 946.66 688.09 945.85   Q 687.64 945.58 687.11 945.55   Q 685.72 945.48 684.58 945.07   Q 683.80 944.79 684.62 944.69   C 686.36 944.50 688.05 944.85 689.75 944.40   C 691.66 943.88 693.39 944.37 695.31 943.88   C 698.20 943.15 701.20 943.41 704.21 942.71   Q 707.80 941.87 711.13 941.29   A 1.08 1.08 0.0 0 1 712.39 942.34   L 712.45 949.51   Z"
         id="path81" />
      <path
         fill="#005d02"
         d="   M 738.83 969.94   L 753.99 975.19   Q 754.21 975.67 754.95 975.91   Q 755.51 976.09 755.05 976.47   Q 754.79 976.68 754.24 976.79   Q 752.57 977.12 750.86 977.13   Q 696.18 977.34 641.50 977.36   Q 638.80 977.37 639.27 975.95   L 652.49 971.81   Q 662.34 968.77 670.48 961.74   Q 672.30 960.17 673.91 958.10   A 1.77 1.76 -63.8 0 1 675.73 957.47   Q 680.20 958.62 684.86 959.57   Q 687.53 960.12 690.18 960.30   Q 692.01 960.44 693.75 960.76   Q 695.48 961.09 697.30 961.17   Q 706.83 961.61 715.05 961.25   Q 717.28 961.16 719.52 961.13   Q 721.05 961.11 723.59 962.83   Q 730.61 967.57 738.83 969.94   Z"
         id="path82" />
    </g>
    <g
       id="g106"
       inkscape:label="Snake">
      <path
         fill="#000000"
         d="   M 664.41 745.68   Q 667.23 747.82 669.04 750.84   A 1.09 1.08 82.8 0 0 669.68 751.34   Q 671.77 751.97 674.17 751.47   Q 676.29 751.03 678.23 751.10   Q 687.10 751.43 695.52 751.77   C 697.21 751.83 698.72 752.56 700.40 752.58   Q 701.90 752.60 704.75 753.11   Q 708.90 753.85 713.01 754.81   Q 715.73 755.45 718.25 756.60   Q 718.74 756.83 719.54 756.26   Q 719.56 756.47 719.67 756.71   A 1.06 1.04 -0.5 0 0 720.22 757.24   Q 728.98 760.76 735.15 765.91   Q 746.99 775.80 747.48 791.73   C 747.61 796.07 746.44 800.36 743.27 802.93   C 742.36 803.67 741.98 804.64 740.99 805.41   Q 735.79 809.46 731.64 812.08   Q 723.29 817.34 713.08 822.19   Q 712.60 822.42 712.59 822.95   L 712.49 826.27   Q 711.60 822.82 712.66 821.18   Q 712.82 821.49 713.23 821.31   C 723.54 816.56 734.50 810.72 742.68 802.66   Q 747.09 798.33 746.80 791.57   C 745.92 770.87 729.80 759.84 711.49 755.27   C 696.50 751.52 680.30 751.32 664.93 752.48   Q 646.06 753.89 627.14 757.45   C 624.10 758.02 621.84 759.16 619.48 760.97   Q 618.55 761.69 618.55 762.79   A 1.56 1.56 0.0 0 0 620.17 764.35   C 635.63 763.71 718.56 762.02 722.91 781.83   C 724.18 787.62 717.71 793.24 713.21 795.96   Q 712.90 796.15 712.62 796.79   Q 712.52 796.91 712.38 796.84   Q 712.13 796.72 712.13 796.45   Q 712.08 789.85 711.90 783.00   Q 711.78 778.54 712.95 774.32   A 0.92 0.91 17.7 0 0 712.37 773.21   Q 702.98 769.84 693.61 768.41   Q 685.95 767.24 678.67 766.47   A 1.15 1.14 -6.8 0 0 677.47 767.99   C 678.87 771.90 679.44 775.96 679.47 780.10   Q 679.69 807.16 679.69 835.10   Q 679.69 836.03 679.49 836.93   Q 679.22 838.10 680.23 838.65   C 682.13 839.67 683.68 839.55 685.69 839.94   Q 699.37 842.56 710.91 846.67   A 1.09 1.09 0.0 0 0 712.36 845.66   L 712.45 837.54   L 712.47 846.23   Q 712.48 847.41 713.60 847.76   Q 725.10 851.38 733.80 857.81   Q 738.76 861.48 741.22 866.22   Q 742.68 869.02 742.10 873.38   Q 741.77 875.86 739.78 877.98   Q 734.60 883.49 728.12 886.55   Q 720.16 890.29 713.04 892.35   Q 712.53 892.50 712.52 893.04   L 712.46 904.76   A 1.40 1.40 0.0 0 0 713.42 906.09   Q 721.52 908.85 727.68 915.01   C 729.00 916.33 729.47 917.54 730.51 918.93   C 732.40 921.48 732.44 925.86 731.44 928.36   Q 729.41 933.50 725.18 936.17   Q 720.06 939.40 713.14 940.84   Q 712.64 940.94 712.63 941.46   L 712.45 949.51   L 712.39 942.34   A 1.08 1.08 0.0 0 0 711.13 941.29   Q 707.80 941.87 704.21 942.71   C 701.20 943.41 698.20 943.15 695.31 943.88   C 693.39 944.37 691.66 943.88 689.75 944.40   C 688.05 944.85 686.36 944.50 684.62 944.69   Q 683.80 944.79 684.58 945.07   Q 685.72 945.48 687.11 945.55   Q 687.64 945.58 688.09 945.85   Q 689.47 946.66 691.06 946.60   Q 691.65 946.58 692.16 946.86   Q 693.50 947.59 694.97 947.61   C 696.34 947.63 697.32 948.27 698.60 948.44   Q 700.04 948.63 701.38 948.97   Q 707.85 950.62 711.25 951.32   Q 712.36 951.55 712.58 950.00   Q 712.71 951.65 713.70 951.85   Q 718.61 952.86 724.09 954.31   Q 730.74 956.09 738.40 957.42   Q 738.88 957.50 739.04 957.96   Q 739.14 958.23 739.04 958.50   Q 738.86 958.96 738.36 959.02   L 722.64 960.74   Q 721.04 960.91 722.47 961.64   L 738.83 969.94   Q 730.61 967.57 723.59 962.83   Q 721.05 961.11 719.52 961.13   Q 717.28 961.16 715.05 961.25   Q 706.83 961.61 697.30 961.17   Q 695.48 961.09 693.75 960.76   Q 692.01 960.44 690.18 960.30   Q 687.53 960.12 684.86 959.57   Q 680.20 958.62 675.73 957.47   A 1.77 1.76 -63.8 0 0 673.91 958.10   Q 672.30 960.17 670.48 961.74   Q 662.34 968.77 652.49 971.81   Q 664.82 966.61 674.01 957.48   A 0.47 0.46 -58.5 0 0 673.83 956.71   Q 667.54 954.71 660.99 950.68   Q 657.54 948.56 655.14 946.11   Q 653.51 944.44 653.64 942.02   C 654.08 933.81 659.68 929.11 667.21 926.60   Q 673.40 924.53 678.78 923.79   Q 679.37 923.70 679.38 923.11   L 679.39 920.78   A 0.91 0.90 -76.7 0 0 678.89 919.97   C 677.69 919.36 676.35 919.17 675.05 918.70   Q 665.04 915.09 660.05 912.22   Q 656.50 910.18 652.99 907.25   Q 647.05 902.30 644.99 895.07   C 643.96 891.46 647.34 887.88 650.00 886.11   C 658.59 880.43 667.47 877.64 678.75 874.88   Q 679.25 874.76 679.25 874.23   L 679.22 863.08   Q 679.22 862.56 678.71 862.43   Q 669.31 859.84 660.46 855.90   Q 655.64 853.76 650.32 849.80   C 642.94 844.30 640.04 836.80 643.19 827.96   C 644.30 824.83 649.54 822.56 652.52 821.47   Q 658.96 819.10 664.88 816.92   C 665.58 816.67 666.04 816.18 666.74 815.95   Q 672.70 814.02 678.53 811.71   Q 679.02 811.51 679.02 810.98   Q 678.99 796.12 678.97 781.88   Q 678.95 774.07 676.72 766.60   A 0.85 0.84 83.5 0 0 675.97 766.00   C 658.34 764.55 639.46 764.41 620.63 764.78   Q 619.48 764.81 618.61 764.16   C 617.41 763.26 617.75 761.93 618.69 761.04   Q 622.36 757.58 626.02 756.89   Q 647.17 752.94 667.30 751.70   Q 669.77 751.54 667.94 749.87   Q 665.78 747.89 664.41 745.68   Z   M 713.75 773.93   Q 713.53 773.83 713.47 774.07   Q 712.62 777.28 712.57 780.51   Q 712.46 787.68 712.54 795.16   A 0.30 0.30 0.0 0 0 713.00 795.41   C 716.85 792.96 722.06 788.37 722.28 783.48   C 722.51 778.61 717.72 775.74 713.75 773.93   Z   M 712.67 867.97   Q 712.90 870.18 711.33 868.49   Q 711.00 868.13 710.50 868.13   L 704.63 868.13   Q 704.37 868.13 704.26 867.88   Q 704.20 867.72 704.04 867.70   Q 698.30 866.97 691.27 865.51   Q 687.96 864.83 684.70 863.99   Q 682.73 863.48 680.98 863.24   A 1.04 1.03 -85.9 0 0 679.80 864.27   L 679.87 898.00   A 0.83 0.83 0.0 0 0 680.67 898.83   C 682.27 898.89 683.75 898.80 685.37 899.11   Q 688.23 899.68 691.17 900.08   Q 701.25 901.44 711.23 905.10   A 0.84 0.84 0.0 0 0 712.36 904.30   L 712.15 892.28   Q 712.14 891.88 712.55 891.82   Q 713.80 891.66 712.75 891.41   Q 727.00 888.11 736.09 880.87   Q 744.24 874.39 739.83 865.38   C 737.94 861.51 733.21 857.84 729.39 855.60   Q 721.50 850.98 712.12 847.80   Q 695.21 842.08 675.76 838.76   Q 672.94 838.28 675.69 837.47   Q 676.96 837.10 678.27 836.59   Q 678.98 836.32 678.98 835.56   L 678.99 812.96   A 0.47 0.47 0.0 0 0 678.36 812.52   Q 666.83 816.79 654.77 821.28   C 651.74 822.41 645.57 824.47 644.21 827.69   C 638.03 842.29 651.73 851.89 663.14 856.37   Q 680.77 863.29 699.48 866.27   Q 701.32 866.56 706.07 867.04   Q 709.66 867.39 712.67 867.97   Z   M 679.32 837.63   A 0.61 0.61 0.0 0 0 678.49 836.92   L 677.07 837.53   Q 676.35 837.83 677.00 838.26   Q 678.86 839.49 679.32 837.63   Z   M 701.74 924.23   C 688.08 923.86 656.15 921.89 654.20 942.23   C 653.98 944.56 657.15 947.17 658.94 948.44   Q 669.38 955.82 683.39 958.49   Q 700.70 961.78 719.01 960.34   Q 727.63 959.66 736.91 958.73   A 0.38 0.38 0.0 0 0 737.20 958.17   Q 737.08 957.96 736.85 957.91   Q 706.72 951.06 678.44 944.50   Q 676.12 943.96 678.50 943.98   Q 698.56 944.16 718.46 938.70   Q 723.77 937.24 727.29 933.59   C 734.40 926.21 731.31 918.05 723.96 912.56   Q 718.88 908.75 712.58 906.36   Q 697.63 900.69 679.56 899.42   Q 678.97 899.38 678.97 898.78   L 678.98 876.22   A 0.62 0.61 83.0 0 0 678.22 875.62   C 671.01 877.37 642.27 884.99 646.14 895.99   Q 649.36 905.14 659.30 910.86   C 672.00 918.16 686.97 921.94 701.76 924.09   Q 702.93 924.26 701.74 924.23   Z   M 687.51 922.43   Q 687.06 922.07 686.50 921.92   Q 684.70 921.46 683.01 921.28   A 2.06 2.01 -21.3 0 1 681.95 920.83   Q 681.13 920.16 680.37 920.61   A 1.38 1.38 0.0 0 0 679.68 921.87   Q 679.76 923.99 681.47 923.68   Q 683.74 923.28 685.85 923.44   Q 687.09 923.54 688.19 922.91   Q 688.33 922.83 688.20 922.74   Q 688.05 922.65 687.87 922.61   Q 687.67 922.56 687.51 922.43   Z"
         id="path37" />
      <path
         fill="#e2bc1a"
         d="   M 712.66 821.18   L 712.62 796.79   Q 712.90 796.15 713.21 795.96   C 717.71 793.24 724.18 787.62 722.91 781.83   C 718.56 762.02 635.63 763.71 620.17 764.35   A 1.56 1.56 0.0 0 1 618.55 762.79   Q 618.55 761.69 619.48 760.97   C 621.84 759.16 624.10 758.02 627.14 757.45   Q 646.06 753.89 664.93 752.48   C 680.30 751.32 696.50 751.52 711.49 755.27   C 729.80 759.84 745.92 770.87 746.80 791.57   Q 747.09 798.33 742.68 802.66   C 734.50 810.72 723.54 816.56 713.23 821.31   Q 712.82 821.49 712.66 821.18   Z   M 624.22 762.30   A 0.72 0.72 0.0 0 0 624.42 761.13   Q 623.91 760.63 623.23 761.03   A 0.70 0.69 -35.4 0 0 623.05 762.08   Q 623.53 762.63 624.22 762.30   Z"
         id="path38" />
      <path
         fill="#000000"
         d="   M 624.22 762.30   Q 623.53 762.63 623.05 762.08   A 0.70 0.69 -35.4 0 1 623.23 761.03   Q 623.91 760.63 624.42 761.13   A 0.72 0.72 0.0 0 1 624.22 762.30   Z"
         id="path39" />
      <path
         fill="#e2bc1a"
         d="   M 712.75 891.41   L 712.67 867.97   Q 709.66 867.39 706.07 867.04   Q 701.32 866.56 699.48 866.27   Q 680.77 863.29 663.14 856.37   C 651.73 851.89 638.03 842.29 644.21 827.69   C 645.57 824.47 651.74 822.41 654.77 821.28   Q 666.83 816.79 678.36 812.52   A 0.47 0.47 0.0 0 1 678.99 812.96   L 678.98 835.56   Q 678.98 836.32 678.27 836.59   Q 676.96 837.10 675.69 837.47   Q 672.94 838.28 675.76 838.76   Q 695.21 842.08 712.12 847.80   Q 721.50 850.98 729.39 855.60   C 733.21 857.84 737.94 861.51 739.83 865.38   Q 744.24 874.39 736.09 880.87   Q 727.00 888.11 712.75 891.41   Z"
         id="path41" />
      <path
         fill="#e2bc1a"
         d="   M 701.76 924.09   C 686.97 921.94 672.00 918.16 659.30 910.86   Q 649.36 905.14 646.14 895.99   C 642.27 884.99 671.01 877.37 678.22 875.62   A 0.62 0.61 83.0 0 1 678.98 876.22   L 678.97 898.78   Q 678.97 899.38 679.56 899.42   Q 697.63 900.69 712.58 906.36   Q 718.88 908.75 723.96 912.56   C 731.31 918.05 734.40 926.21 727.29 933.59   Q 723.77 937.24 718.46 938.70   Q 698.56 944.16 678.50 943.98   Q 676.12 943.96 678.44 944.50   Q 706.72 951.06 736.85 957.91   Q 737.08 957.96 737.20 958.17   A 0.38 0.38 0.0 0 1 736.91 958.73   Q 727.63 959.66 719.01 960.34   Q 700.70 961.78 683.39 958.49   Q 669.38 955.82 658.94 948.44   C 657.15 947.17 653.98 944.56 654.20 942.23   C 656.15 921.89 688.08 923.86 701.74 924.23   Q 702.93 924.26 701.76 924.09   Z"
         id="path58" />
    </g>
  </g>
  <g
     id="g99"
     inkscape:label="Wizarat Al-Siha">
    <path
       fill="#000000"
       d="   M 814.59 834.70   L 817.34 831.87   Q 818.60 830.57 819.86 831.87   L 823.75 835.91   A 1.95 1.95 0.0 0 1 823.74 838.63   L 819.30 843.12   A 1.05 1.04 -44.8 0 1 817.81 843.12   L 814.57 839.81   Q 814.15 839.37 813.72 839.82   L 811.02 842.68   Q 809.83 843.94 808.62 842.70   L 804.64 838.60   Q 803.32 837.24 804.64 835.87   L 808.64 831.74   A 1.59 1.58 -44.6 0 1 810.92 831.75   L 813.72 834.69   Q 814.15 835.15 814.59 834.70   Z"
       id="path42" />
    <path
       fill="#000000"
       d="   M 900.11 892.83   Q 899.52 893.70 898.76 892.98   L 896.81 891.14   Q 896.39 890.75 896.36 890.17   Q 895.16 865.55 894.08 844.22   Q 893.94 841.26 896.06 839.18   Q 899.90 835.41 903.91 831.51   A 0.30 0.29 -22.0 0 1 904.41 831.72   Q 904.49 850.67 904.43 871.03   C 904.40 879.16 904.94 885.64 900.11 892.83   Z"
       id="path43" />
    <path
       fill="#000000"
       d="   M 1015.89 879.66   C 1015.84 884.59 1014.26 889.25 1011.41 893.10   Q 1011.03 893.62 1010.55 893.19   L 1008.45 891.26   Q 1007.97 890.83 1007.94 890.18   Q 1006.73 866.83 1005.65 844.06   Q 1005.51 841.26 1007.50 839.29   Q 1011.41 835.40 1015.57 831.45   A 0.24 0.24 0.0 0 1 1015.97 831.62   Q 1016.08 858.44 1015.89 879.66   Z"
       id="path44" />
    <path
       fill="#000000"
       d="   M 1047.04 840.20   L 1044.47 843.00   A 1.22 1.22 0.0 0 1 1042.69 843.01   L 1038.01 838.09   A 1.22 1.22 0.0 0 1 1038.00 836.41   L 1042.64 831.48   A 1.22 1.22 0.0 0 1 1044.43 831.49   L 1047.06 834.34   A 1.22 1.22 0.0 0 0 1048.86 834.34   L 1051.49 831.49   A 1.22 1.22 0.0 0 1 1053.27 831.48   L 1057.96 836.41   A 1.22 1.22 0.0 0 1 1057.96 838.09   L 1053.25 843.00   A 1.22 1.22 0.0 0 1 1051.48 843.00   L 1048.83 840.18   A 1.22 1.22 0.0 0 0 1047.04 840.20   Z"
       id="path45" />
    <path
       fill="#000000"
       d="   M 971.05 877.50   L 989.98 877.50   A 0.21 0.21 0.0 0 0 990.19 877.27   L 988.48 843.84   A 5.80 5.79 66.9 0 1 990.28 839.35   L 998.42 831.65   A 0.33 0.33 0.0 0 1 998.98 831.89   Q 998.94 851.83 998.98 870.18   C 999.00 876.58 998.30 883.23 994.98 888.73   Q 994.68 889.22 994.10 889.23   Q 982.78 889.27 971.26 889.25   C 967.14 889.24 963.97 889.40 960.87 886.51   Q 960.42 886.10 960.02 886.55   L 958.02 888.80   Q 957.66 889.21 957.11 889.22   Q 945.24 889.37 934.38 889.17   Q 932.49 889.13 930.66 887.75   Q 930.12 887.34 929.97 888.00   C 928.62 893.85 925.82 899.51 921.62 903.53   Q 918.14 906.86 912.91 905.19   Q 907.46 903.44 902.41 901.62   Q 901.94 901.45 901.94 900.95   L 901.95 897.53   A 0.56 0.55 0.5 0 1 902.52 896.98   C 914.68 897.20 920.92 892.17 923.87 880.67   A 1.67 1.63 -50.3 0 0 923.78 879.57   L 918.29 867.26   A 1.76 1.75 48.4 0 1 918.38 865.67   L 923.78 856.47   Q 924.18 855.79 924.51 856.50   Q 928.24 864.58 932.72 874.11   C 933.62 876.00 934.87 877.51 937.11 877.51   Q 946.15 877.48 954.50 877.52   Q 955.31 877.52 954.96 876.79   Q 952.16 870.94 946.91 869.41   Q 946.24 869.21 946.46 868.55   L 949.51 859.24   Q 949.70 858.66 950.25 858.44   C 956.61 855.94 964.94 854.42 970.89 857.53   C 979.07 861.81 975.21 871.52 970.74 876.84   Q 970.18 877.50 971.05 877.50   Z"
       id="path46" />
    <path
       fill="#000000"
       d="   M 1135.10 867.30   A 0.43 0.43 0.0 0 0 1135.84 867.44   C 1140.72 861.46 1147.37 856.23 1155.16 855.62   C 1167.72 854.63 1172.69 866.07 1172.23 876.75   Q 1172.19 877.50 1172.95 877.50   L 1186.73 877.50   Q 1187.32 877.50 1187.29 876.91   Q 1186.43 860.43 1185.62 844.25   Q 1185.47 841.20 1187.80 838.98   Q 1191.77 835.22 1195.58 831.62   A 0.27 0.27 0.0 0 1 1196.03 831.81   Q 1196.13 852.43 1195.93 874.46   Q 1195.86 881.71 1192.15 888.73   A 0.98 0.94 -75.1 0 1 1191.29 889.25   Q 1183.38 889.23 1174.78 889.26   C 1172.80 889.27 1171.43 887.79 1170.76 886.04   Q 1170.47 885.30 1170.08 885.99   L 1168.55 888.74   Q 1168.27 889.26 1167.68 889.25   Q 1153.99 889.22 1139.30 889.26   C 1136.78 889.26 1134.95 889.61 1133.36 887.30   Q 1132.94 886.69 1132.59 887.34   L 1131.91 888.63   Q 1131.58 889.26 1130.87 889.26   Q 1118.99 889.25 1107.27 889.25   Q 1100.01 889.25 1097.38 882.10   A 0.45 0.45 0.0 0 0 1096.69 881.89   C 1092.07 885.25 1086.78 889.30 1080.95 889.24   Q 1073.20 889.16 1063.31 889.29   C 1058.52 889.36 1054.22 889.08 1051.56 884.44   A 0.39 0.39 0.0 0 0 1050.89 884.42   L 1048.78 887.68   A 1.14 1.12 -73.8 0 1 1047.85 888.20   Q 1038.45 888.41 1031.58 884.72   Q 1029.30 883.49 1029.89 881.14   Q 1031.37 875.28 1033.02 870.52   Q 1033.96 867.81 1037.99 865.15   Q 1043.31 861.64 1048.11 858.51   A 1.83 1.80 -21.3 0 0 1048.92 856.70   Q 1048.57 854.55 1050.46 853.05   Q 1054.29 850.03 1058.13 847.03   A 0.33 0.33 0.0 0 1 1058.67 847.29   L 1058.68 874.18   A 3.35 3.35 0.0 0 0 1062.08 877.53   Q 1070.79 877.43 1077.89 877.53   Q 1084.65 877.62 1090.64 874.29   Q 1091.42 873.85 1090.72 873.30   Q 1087.27 870.60 1083.04 867.70   Q 1078.66 864.71 1073.98 866.61   Q 1069.92 868.27 1071.94 864.38   C 1075.15 858.22 1081.13 852.61 1088.36 857.62   C 1095.47 862.54 1102.86 867.99 1110.90 870.91   A 1.36 1.35 29.5 0 1 1111.49 873.03   L 1108.32 876.95   Q 1107.88 877.50 1108.59 877.50   L 1126.73 877.50   Q 1127.49 877.50 1127.28 876.77   L 1124.76 867.95   A 2.46 2.45 -30.8 0 1 1125.37 865.56   L 1131.79 859.04   Q 1132.31 858.52 1132.53 859.22   L 1135.10 867.30   Z   M 1148.76 868.05   Q 1144.06 870.37 1138.73 876.90   Q 1138.25 877.50 1139.02 877.50   L 1162.56 877.50   Q 1163.24 877.50 1163.24 876.83   C 1163.35 868.35 1156.02 864.47 1148.76 868.05   Z   M 1048.85 867.37   C 1048.01 869.23 1043.69 871.24 1041.60 872.21   A 1.49 1.49 0.0 0 0 1041.61 874.91   Q 1045.08 876.49 1049.14 876.44   Q 1049.78 876.43 1049.75 875.79   L 1049.34 867.46   Q 1049.29 866.40 1048.85 867.37   Z"
       id="path47" />
    <path
       fill="#000000"
       d="   M 1213.09 876.50   C 1213.09 882.72 1212.30 887.97 1208.55 893.09   A 0.62 0.62 0.0 0 1 1207.63 893.18   L 1205.54 891.23   A 1.65 1.60 -70.6 0 1 1205.02 890.10   Q 1203.87 866.49 1202.73 843.88   C 1202.63 841.87 1203.63 840.22 1205.09 838.80   Q 1208.80 835.15 1212.58 831.55   A 0.33 0.33 0.0 0 1 1213.14 831.79   Q 1213.12 854.05 1213.09 876.50   Z"
       id="path48" />
    <path
       fill="#000000"
       d="   M 1291.54 893.14   A 0.55 0.54 -51.6 0 1 1290.71 893.24   L 1288.45 891.11   Q 1288.09 890.76 1288.06 890.26   Q 1286.88 866.65 1285.75 843.81   C 1285.66 841.84 1286.67 840.20 1288.09 838.81   Q 1292.04 834.96 1295.58 831.57   A 0.31 0.31 0.0 0 1 1296.10 831.79   Q 1296.17 853.52 1296.13 878.77   Q 1296.12 886.20 1291.54 893.14   Z"
       id="path49" />
    <path
       fill="#000000"
       d="   M 1240.17 837.96   L 1242.70 835.43   Q 1244.14 833.99 1245.59 835.43   L 1249.41 839.24   A 1.81 1.81 0.0 0 1 1249.39 841.82   L 1245.16 845.96   A 1.53 1.52 45.4 0 1 1243.01 845.94   L 1240.17 843.06   Q 1239.75 842.63 1239.32 843.05   L 1236.05 846.25   A 1.08 1.07 -44.8 0 1 1234.54 846.25   L 1230.00 841.81   A 1.79 1.78 -45.6 0 1 1229.98 839.28   L 1233.91 835.29   Q 1235.24 833.94 1236.57 835.28   L 1239.27 837.96   Q 1239.72 838.41 1240.17 837.96   Z"
       id="path50" />
    <path
       fill="#000000"
       d="   M 874.03 838.03   L 876.77 835.25   A 1.60 1.60 0.0 0 1 879.04 835.24   L 883.09 839.28   Q 884.43 840.62 883.06 841.94   L 879.02 845.80   Q 877.84 846.93 876.68 845.80   L 873.90 843.09   A 0.59 0.59 0.0 0 0 873.07 843.08   L 869.91 846.10   A 1.23 1.23 0.0 0 1 868.21 846.10   L 863.85 841.94   A 1.81 1.81 0.0 0 1 863.81 839.36   L 867.75 835.37   Q 869.00 834.11 870.26 835.37   L 872.93 838.04   Q 873.48 838.59 874.03 838.03   Z"
       id="path51" />
    <rect
       fill="#000000"
       x="-4.61"
       y="-4.59"
       transform="translate(1311.38,843.83) rotate(44.8)"
       width="9.22"
       height="9.18"
       rx="1.49"
       id="rect51" />
    <path
       fill="#000000"
       d="   M 850.48 877.50   L 864.74 877.50   Q 865.50 877.50 865.09 876.86   Q 860.51 869.70 863.58 861.48   C 866.77 852.91 877.68 850.56 883.49 857.95   C 890.00 866.23 889.72 880.04 884.08 888.71   A 1.25 1.22 16.0 0 1 883.04 889.27   Q 868.52 889.21 852.86 889.29   C 850.58 889.30 849.03 888.02 848.39 885.85   A 0.28 0.28 0.0 0 0 847.88 885.80   L 846.27 888.73   Q 845.99 889.23 845.42 889.23   Q 838.20 889.27 831.23 889.23   C 825.70 889.21 820.99 889.78 817.82 884.53   A 0.43 0.42 46.3 0 0 817.10 884.51   L 814.98 887.67   Q 814.64 888.18 814.02 888.20   Q 804.30 888.41 797.39 884.48   C 795.93 883.65 795.82 882.19 796.19 880.72   Q 797.67 874.75 799.39 870.22   Q 800.33 867.72 804.03 865.27   Q 809.16 861.88 814.26 858.55   Q 815.35 857.85 815.14 856.57   C 814.91 855.14 815.65 853.89 816.72 853.02   Q 820.49 849.99 824.26 847.16   Q 824.90 846.69 824.90 847.48   L 824.91 874.21   A 3.30 3.29 0.0 0 0 828.21 877.50   L 840.74 877.50   Q 841.41 877.50 841.36 876.83   Q 840.87 870.52 838.08 864.97   A 1.24 1.24 0.0 0 1 838.30 863.53   L 845.23 856.45   A 0.77 0.77 0.0 0 1 846.49 856.68   Q 850.85 866.55 849.90 876.87   Q 849.84 877.50 850.48 877.50   Z   M 878.37 875.48   Q 879.02 875.64 879.11 874.98   Q 879.79 870.17 877.32 866.60   C 875.64 864.18 871.01 863.83 871.09 867.78   C 871.17 871.72 874.75 874.61 878.37 875.48   Z   M 814.97 867.57   C 813.35 869.78 809.90 871.13 807.59 872.45   A 1.34 1.34 0.0 0 0 807.67 874.82   Q 811.00 876.43 815.31 876.46   Q 815.99 876.47 815.95 875.79   L 815.60 867.76   Q 815.55 866.78 814.97 867.57   Z"
       id="path52" />
    <path
       fill="#000000"
       d="   M 1233.99 863.00   C 1232.97 862.02 1233.05 860.54 1233.96 859.53   Q 1236.58 856.58 1239.12 853.46   Q 1239.60 852.88 1240.08 853.47   Q 1245.35 860.05 1251.01 866.31   C 1256.41 872.30 1255.70 881.70 1250.00 887.10   C 1246.36 890.54 1240.63 891.64 1236.02 889.96   C 1223.88 885.54 1225.17 870.82 1233.96 863.74   A 0.50 0.49 47.5 0 0 1233.99 863.00   Z   M 1236.71 872.13   C 1235.30 875.16 1236.43 878.56 1239.99 878.81   C 1242.75 879.00 1246.42 876.70 1243.85 873.59   Q 1241.97 871.29 1239.85 869.17   Q 1239.43 868.75 1238.98 869.14   Q 1237.52 870.38 1236.71 872.13   Z"
       id="path53" />
    <path
       fill="#000000"
       d="   M 1342.85 889.44   Q 1330.13 887.69 1329.59 874.37   C 1329.32 867.71 1333.49 857.25 1341.16 855.91   C 1348.73 854.58 1352.91 862.52 1354.25 868.72   Q 1357.85 885.29 1349.29 899.81   C 1346.61 904.34 1343.05 906.84 1337.72 905.23   Q 1331.86 903.47 1327.04 901.58   Q 1326.47 901.36 1326.47 900.75   L 1326.49 897.74   A 0.64 0.63 -89.6 0 1 1327.13 897.10   C 1333.34 897.19 1339.57 895.60 1343.18 890.18   Q 1343.61 889.55 1342.85 889.44   Z   M 1339.29 868.86   C 1336.72 874.28 1339.56 877.76 1345.29 877.37   Q 1345.93 877.33 1345.93 876.70   Q 1345.96 872.82 1345.14 869.64   C 1344.36 866.62 1340.74 865.80 1339.29 868.86   Z"
       id="path54" />
    <path
       fill="#000000"
       d="   M 1263.93 867.30   L 1268.44 856.21   A 0.41 0.41 0.0 0 1 1269.08 856.05   C 1273.23 859.35 1276.82 863.66 1278.38 868.75   Q 1283.92 886.79 1273.03 901.49   C 1270.65 904.72 1267.36 906.57 1263.22 905.40   Q 1257.11 903.68 1251.76 901.49   Q 1251.27 901.28 1251.27 900.75   L 1251.31 898.00   A 0.92 0.92 0.0 0 1 1252.23 897.09   C 1257.78 897.04 1263.88 896.01 1267.72 891.67   Q 1271.04 887.92 1272.09 883.56   C 1273.36 878.32 1268.11 871.48 1264.15 868.19   Q 1263.72 867.83 1263.93 867.30   Z"
       id="path55" />
    <path
       fill="#000000"
       d="   M 1314.43 885.17   C 1316.72 879.21 1311.78 872.39 1307.25 868.47   A 1.40 1.39 31.9 0 1 1306.88 866.89   L 1311.23 856.24   A 0.40 0.40 0.0 0 1 1311.85 856.08   C 1317.09 860.16 1320.68 865.35 1322.07 871.90   Q 1325.77 889.34 1314.94 902.49   Q 1311.14 907.10 1305.04 905.18   Q 1299.74 903.51 1294.73 901.61   Q 1294.06 901.36 1294.07 900.63   L 1294.09 897.95   Q 1294.10 897.24 1294.81 897.16   Q 1296.78 896.95 1298.76 896.82   Q 1310.23 896.10 1314.43 885.17   Z"
       id="path56" />
    <path
       fill="#000000"
       d="   M 839.45 901.73   L 836.85 904.27   Q 835.57 905.52 834.29 904.28   L 830.43 900.57   Q 829.05 899.24 830.39 897.88   L 834.35 893.83   A 1.65 1.64 -44.9 0 1 836.70 893.83   L 839.52 896.72   Q 839.99 897.20 840.46 896.71   L 843.44 893.64   Q 844.42 892.64 845.40 893.64   L 849.60 897.90   Q 850.94 899.25 849.56 900.56   L 845.24 904.63   A 1.27 1.26 -44.8 0 1 843.49 904.63   L 840.47 901.73   Q 839.96 901.23 839.45 901.73   Z"
       id="path59" />
  </g>
  <g
     id="g100"
     inkscape:label="IRAQI MINISTRY OF HEALTH">
    <path
       fill="#000000"
       d="   M 828.13 948.22   Q 829.79 949.20 830.90 950.85   Q 833.79 955.20 836.55 959.80   A 0.54 0.54 0.0 0 0 837.52 959.70   L 847.39 931.92   A 0.64 0.63 -80.3 0 1 847.99 931.49   L 854.73 931.49   Q 855.26 931.49 855.43 931.99   L 865.30 960.33   Q 865.54 961.01 864.82 961.01   L 859.02 961.01   Q 858.35 961.01 858.16 960.36   L 856.66 955.08   A 0.90 0.89 81.8 0 0 855.80 954.43   L 846.71 954.41   Q 846.11 954.41 845.94 954.98   L 844.27 960.46   Q 844.10 961.00 843.53 961.00   L 830.49 961.00   Q 829.81 961.00 829.48 960.41   Q 826.88 955.82 824.24 951.69   Q 822.79 949.42 820.20 949.82   Q 819.66 949.90 819.67 950.44   L 819.69 960.41   Q 819.70 961.01 819.09 961.01   L 813.81 961.00   Q 813.12 961.00 813.12 960.31   L 813.12 932.48   A 0.43 0.43 0.0 0 1 813.55 932.05   Q 819.29 931.92 824.86 932.06   C 830.02 932.19 834.73 934.85 833.93 940.72   Q 833.25 945.74 828.19 947.57   Q 827.47 947.83 828.13 948.22   Z   M 819.60 937.62   L 819.64 944.16   A 0.57 0.57 0.0 0 0 820.21 944.73   L 823.01 944.71   A 4.07 3.60 -0.3 0 0 827.06 941.09   L 827.06 940.61   A 4.07 3.60 -0.3 0 0 822.97 937.03   L 820.17 937.05   A 0.57 0.57 0.0 0 0 819.60 937.62   Z   M 847.76 948.56   A 0.57 0.56 -81.6 0 0 848.30 949.29   L 854.16 949.29   Q 854.89 949.29 854.68 948.60   L 851.36 937.78   Q 851.21 937.26 851.05 937.78   L 847.76 948.56   Z"
       id="path61" />
    <path
       fill="#000000"
       d="   M 887.20 960.37   A 0.28 0.28 0.0 0 0 887.09 960.81   Q 891.20 965.78 897.45 964.24   Q 897.75 964.17 897.75 964.48   L 897.76 968.78   Q 897.76 969.08 897.47 969.17   C 890.44 971.15 885.21 967.41 881.16 962.21   Q 880.79 961.74 880.19 961.65   Q 868.24 960.01 867.39 947.61   C 866.93 940.85 870.40 934.13 877.16 932.14   C 883.98 930.12 891.39 932.57 894.27 939.33   C 897.45 946.79 895.49 956.93 887.20 960.37   Z   M 881.4771 956.6299   A 10.10 7.44 90.3 0 0 888.9699 946.5690   A 10.10 7.44 90.3 0 0 881.5829 936.4301   A 10.10 7.44 90.3 0 0 874.0901 946.4910   A 10.10 7.44 90.3 0 0 881.4771 956.6299   Z"
       id="path62" />
    <path
       fill="#000000"
       d="   M 1029.61 937.99   Q 1027.64 940.57 1030.83 942.25   C 1036.19 945.08 1042.86 946.59 1041.72 954.38   C 1040.47 962.97 1028.46 962.30 1022.43 960.16   A 0.43 0.43 0.0 0 1 1022.14 959.75   L 1022.12 953.86   A 0.17 0.17 0.0 0 1 1022.39 953.72   Q 1028.47 957.89 1033.53 955.76   A 2.46 2.46 0.0 0 0 1034.61 952.11   C 1033.03 949.80 1029.00 948.71 1026.55 947.42   C 1019.71 943.80 1020.74 934.23 1028.34 932.19   Q 1034.14 930.63 1040.25 932.39   Q 1040.53 932.47 1040.54 932.76   L 1040.56 937.20   Q 1040.56 937.51 1040.26 937.44   Q 1031.61 935.37 1029.61 937.99   Z"
       id="path63" />
    <path
       fill="#000000"
       d="   M 1144.7341 961.6609   A 15.24 14.35 96.2 0 1 1132.1139 944.9602   A 15.24 14.35 96.2 0 1 1148.0259 931.3591   A 15.24 14.35 96.2 0 1 1160.6461 948.0598   A 15.24 14.35 96.2 0 1 1144.7341 961.6609   Z   M 1146.3470 956.6399   A 10.12 7.42 90.3 0 0 1153.8199 946.5589   A 10.12 7.42 90.3 0 0 1146.4530 936.4001   A 10.12 7.42 90.3 0 0 1138.9801 946.4811   A 10.12 7.42 90.3 0 0 1146.3470 956.6399   Z"
       id="path64" />
    <path
       fill="#000000"
       d="   M 1268.25 954.45   L 1258.41 954.40   A 0.33 0.33 0.0 0 0 1258.09 954.63   L 1256.21 960.77   A 0.33 0.33 0.0 0 1 1255.90 961.00   L 1249.57 961.01   A 0.33 0.33 0.0 0 1 1249.26 960.57   L 1259.51 931.72   A 0.33 0.33 0.0 0 1 1259.82 931.50   L 1267.08 931.49   A 0.33 0.33 0.0 0 1 1267.39 931.71   L 1277.45 960.58   A 0.33 0.33 0.0 0 1 1277.13 961.02   L 1270.69 960.99   A 0.33 0.33 0.0 0 1 1270.37 960.75   L 1268.57 954.68   A 0.33 0.33 0.0 0 0 1268.25 954.45   Z   M 1266.77 948.69   L 1263.40 937.77   Q 1263.25 937.26 1263.09 937.77   L 1259.81 948.59   Q 1259.60 949.29 1260.33 949.29   L 1266.32 949.29   Q 1266.95 949.29 1266.77 948.69   Z"
       id="path65" />
    <path
       fill="#000000"
       d="   M 799.90 955.29   L 799.82 938.17   Q 799.82 937.60 799.29 937.36   Q 798.80 937.14 798.28 937.17   Q 797.85 937.20 797.82 936.77   L 797.51 932.52   Q 797.48 932.02 797.98 932.02   L 808.27 931.99   Q 808.81 931.99 808.80 932.52   L 808.79 936.42   Q 808.79 937.13 808.08 937.10   L 807.09 937.05   Q 806.43 937.01 806.43 937.66   L 806.43 955.14   Q 806.43 955.87 807.15 955.98   Q 807.52 956.03 807.89 955.96   Q 808.79 955.79 808.79 956.71   L 808.81 960.23   Q 808.81 961.01 808.02 961.01   L 798.00 961.01   Q 797.48 961.01 797.48 960.50   L 797.49 956.50   Q 797.50 955.99 798.00 955.96   L 799.33 955.89   Q 799.90 955.86 799.90 955.29   Z"
       id="path66" />
    <path
       fill="#000000"
       d="   M 906.74 937.43   L 906.75 955.53   A 0.36 0.36 0.0 0 0 907.09 955.89   L 908.84 955.96   A 0.36 0.36 0.0 0 1 909.18 956.32   L 909.19 960.65   A 0.36 0.36 0.0 0 1 908.83 961.01   L 898.16 961.01   A 0.36 0.36 0.0 0 1 897.80 960.65   L 897.80 956.30   A 0.36 0.36 0.0 0 1 898.16 955.94   L 899.90 955.95   A 0.36 0.36 0.0 0 0 900.26 955.59   L 900.26 937.46   A 0.36 0.36 0.0 0 0 899.91 937.10   L 898.15 937.06   A 0.36 0.36 0.0 0 1 897.80 936.70   L 897.80 932.36   A 0.36 0.36 0.0 0 1 898.16 932.00   L 908.82 932.00   A 0.36 0.36 0.0 0 1 909.18 932.36   L 909.19 936.75   A 0.36 0.36 0.0 0 1 908.82 937.11   L 907.11 937.07   A 0.36 0.36 0.0 0 0 906.74 937.43   Z"
       id="path67" />
    <path
       fill="#000000"
       d="   M 951.12 938.19   Q 947.75 949.23 943.78 960.34   Q 943.54 961.01 942.83 961.01   L 938.92 961.01   Q 938.22 961.01 937.99 960.34   Q 934.87 951.40 931.51 941.51   Q 930.99 939.99 930.85 938.42   Q 930.71 936.82 930.55 938.41   Q 930.47 939.23 930.48 940.04   Q 930.57 950.55 930.53 960.72   A 0.29 0.29 0.0 0 1 930.24 961.01   L 924.99 961.01   Q 924.73 961.01 924.73 960.74   L 924.73 932.51   Q 924.73 932.00 925.24 932.00   L 933.55 932.00   Q 934.16 932.00 934.37 932.57   Q 938.15 942.95 941.02 952.49   Q 941.17 952.99 941.34 952.50   L 948.06 932.61   Q 948.26 932.00 948.91 932.00   L 956.94 932.00   Q 957.62 932.00 957.62 932.69   L 957.62 960.57   Q 957.62 961.01 957.18 961.01   L 951.71 961.00   Q 951.16 961.00 951.16 960.46   L 951.26 938.21   Q 951.26 937.74 951.12 938.19   Z"
       id="path68" />
    <path
       fill="#000000"
       d="   M 970.95 937.47   L 970.95 955.53   A 0.36 0.36 0.0 0 0 971.29 955.89   L 972.99 955.97   A 0.36 0.36 0.0 0 1 973.33 956.33   L 973.32 960.65   A 0.36 0.36 0.0 0 1 972.96 961.01   L 962.31 961.00   A 0.36 0.36 0.0 0 1 961.95 960.64   L 961.95 956.35   A 0.36 0.36 0.0 0 1 962.29 955.99   L 964.12 955.90   A 0.36 0.36 0.0 0 0 964.46 955.54   L 964.46 937.47   A 0.36 0.36 0.0 0 0 964.12 937.11   L 962.29 937.04   A 0.36 0.36 0.0 0 1 961.95 936.68   L 961.95 932.37   A 0.36 0.36 0.0 0 1 962.31 932.01   L 972.99 931.99   A 0.36 0.36 0.0 0 1 973.35 932.35   L 973.30 936.72   A 0.36 0.36 0.0 0 1 972.95 937.08   L 971.30 937.11   A 0.36 0.36 0.0 0 0 970.95 937.47   Z"
       id="path69" />
    <path
       fill="#000000"
       d="   M 997.50 951.02   L 997.48 932.26   Q 997.48 932.00 997.74 932.00   L 1003.29 932.00   Q 1003.63 932.00 1003.63 932.33   L 1003.62 960.32   Q 1003.62 961.01 1002.93 961.01   L 997.70 961.00   Q 997.04 961.00 996.68 960.45   L 984.14 941.21   Q 983.74 940.60 983.74 941.33   L 983.77 960.49   Q 983.77 961.01 983.26 961.01   L 978.23 961.01   Q 977.70 961.01 977.70 960.48   L 977.70 932.52   Q 977.70 932.00 978.23 932.00   L 984.04 932.00   Q 984.69 932.00 985.04 932.54   L 997.05 951.16   A 0.25 0.24 -62.1 0 0 997.50 951.02   Z"
       id="path70" />
    <path
       fill="#000000"
       d="   M 1016.75 937.43   L 1016.77 955.53   A 0.36 0.36 0.0 0 0 1017.11 955.89   L 1018.86 955.97   A 0.36 0.36 0.0 0 1 1019.20 956.33   L 1019.20 960.65   A 0.36 0.36 0.0 0 1 1018.84 961.01   L 1008.18 961.01   A 0.36 0.36 0.0 0 1 1007.82 960.65   L 1007.81 956.31   A 0.36 0.36 0.0 0 1 1008.17 955.95   L 1009.91 955.94   A 0.36 0.36 0.0 0 0 1010.27 955.58   L 1010.26 937.42   A 0.36 0.36 0.0 0 0 1009.90 937.06   L 1008.18 937.08   A 0.36 0.36 0.0 0 1 1007.82 936.72   L 1007.81 932.36   A 0.36 0.36 0.0 0 1 1008.17 932.00   L 1018.84 932.00   A 0.36 0.36 0.0 0 1 1019.20 932.36   L 1019.20 936.73   A 0.36 0.36 0.0 0 1 1018.84 937.09   L 1017.11 937.07   A 0.36 0.36 0.0 0 0 1016.75 937.43   Z"
       id="path71" />
    <path
       fill="#000000"
       d="   M 1051.55 937.09   L 1044.12 937.05   A 0.39 0.39 0.0 0 1 1043.73 936.66   L 1043.74 932.39   A 0.39 0.39 0.0 0 1 1044.13 932.00   L 1066.39 932.01   A 0.39 0.39 0.0 0 1 1066.78 932.40   L 1066.74 936.66   A 0.39 0.39 0.0 0 1 1066.35 937.05   L 1058.87 937.07   A 0.39 0.39 0.0 0 0 1058.48 937.46   L 1058.48 960.63   A 0.39 0.39 0.0 0 1 1058.09 961.02   L 1052.31 960.99   A 0.39 0.39 0.0 0 1 1051.92 960.60   L 1051.94 937.48   A 0.39 0.39 0.0 0 0 1051.55 937.09   Z"
       id="path72" />
    <path
       fill="#000000"
       d="   M 1085.98 948.32   Q 1087.19 948.94 1087.97 950.00   Q 1090.16 952.99 1094.95 960.84   A 0.08 0.08 0.0 0 1 1094.88 960.96   Q 1088.38 961.13 1087.51 960.83   Q 1087.46 960.81 1087.43 960.76   Q 1084.85 956.30 1082.03 951.75   Q 1080.63 949.49 1077.93 949.83   Q 1077.37 949.90 1077.37 950.47   L 1077.38 960.75   A 0.25 0.25 0.0 0 1 1077.13 961.00   L 1071.18 961.00   Q 1070.85 961.00 1070.85 960.67   L 1070.83 932.46   A 0.42 0.41 -90.0 0 1 1071.24 932.04   Q 1077.02 931.93 1082.76 932.05   C 1087.05 932.14 1091.26 934.04 1091.65 938.98   Q 1092.03 943.97 1087.84 946.67   C 1087.24 947.06 1086.46 947.22 1085.92 947.62   Q 1085.38 948.02 1085.98 948.32   Z   M 1077.37 937.43   L 1077.35 944.27   A 0.41 0.41 0.0 0 0 1077.76 944.68   L 1080.73 944.69   A 4.06 3.56 0.2 0 0 1084.80 941.14   L 1084.80 940.60   A 4.06 3.56 0.2 0 0 1080.75 937.03   L 1077.78 937.02   A 0.41 0.41 0.0 0 0 1077.37 937.43   Z"
       id="path73" />
    <path
       fill="#000000"
       d="   M 1107.48 944.21   L 1112.63 932.21   A 0.36 0.35 11.0 0 1 1112.96 932.00   L 1119.44 932.01   Q 1119.59 932.01 1119.52 932.14   Q 1115.69 940.04 1111.47 948.04   Q 1110.16 950.53 1110.20 952.73   Q 1110.26 956.74 1110.24 960.54   Q 1110.23 961.00 1109.77 961.00   L 1104.22 961.01   Q 1103.75 961.01 1103.74 960.54   C 1103.69 957.00 1104.45 952.14 1102.76 948.76   Q 1098.58 940.39 1094.66 932.18   A 0.12 0.12 0.0 0 1 1094.77 932.01   L 1101.69 932.00   Q 1101.89 932.00 1101.98 932.18   Q 1105.11 938.55 1106.96 944.19   Q 1107.19 944.89 1107.48 944.21   Z"
       id="path74" />
    <path
       fill="#000000"
       d="   M 1172.48 944.23   L 1181.13 944.24   A 0.34 0.34 0.0 0 1 1181.47 944.58   L 1181.48 948.95   A 0.34 0.34 0.0 0 1 1181.14 949.29   L 1172.46 949.28   A 0.34 0.34 0.0 0 0 1172.12 949.62   L 1172.13 960.67   A 0.34 0.34 0.0 0 1 1171.79 961.01   L 1165.97 961.01   A 0.34 0.34 0.0 0 1 1165.63 960.67   L 1165.63 932.34   A 0.34 0.34 0.0 0 1 1165.97 932.00   L 1181.95 932.00   A 0.34 0.34 0.0 0 1 1182.29 932.34   L 1182.27 936.73   A 0.34 0.34 0.0 0 1 1181.93 937.07   L 1172.44 937.06   A 0.34 0.34 0.0 0 0 1172.10 937.40   L 1172.14 943.89   A 0.34 0.34 0.0 0 0 1172.48 944.23   Z"
       id="path75" />
    <path
       fill="#000000"
       d="   M 1204.70 949.23   L 1204.74 960.54   A 0.46 0.46 0.0 0 1 1204.28 961.00   L 1198.67 961.01   A 0.46 0.46 0.0 0 1 1198.21 960.55   L 1198.22 932.46   A 0.46 0.46 0.0 0 1 1198.68 932.00   L 1204.28 932.01   A 0.46 0.46 0.0 0 1 1204.74 932.47   L 1204.72 943.26   A 0.46 0.46 0.0 0 0 1205.18 943.72   L 1216.23 943.73   A 0.46 0.46 0.0 0 0 1216.69 943.27   L 1216.66 932.45   A 0.46 0.46 0.0 0 1 1217.12 931.99   L 1222.74 932.01   A 0.46 0.46 0.0 0 1 1223.20 932.47   L 1223.20 960.54   A 0.46 0.46 0.0 0 1 1222.74 961.00   L 1217.12 961.02   A 0.46 0.46 0.0 0 1 1216.66 960.56   L 1216.70 949.24   A 0.46 0.46 0.0 0 0 1216.24 948.78   L 1205.16 948.77   A 0.46 0.46 0.0 0 0 1204.70 949.23   Z"
       id="path76" />
    <path
       fill="#000000"
       d="   M 1236.77 949.22   L 1236.82 955.50   A 0.44 0.44 0.0 0 0 1237.26 955.94   L 1247.16 955.96   A 0.44 0.44 0.0 0 1 1247.60 956.40   L 1247.61 960.57   A 0.44 0.44 0.0 0 1 1247.17 961.01   L 1230.73 961.01   A 0.44 0.44 0.0 0 1 1230.29 960.57   L 1230.29 932.44   A 0.44 0.44 0.0 0 1 1230.73 932.00   L 1246.52 932.01   A 0.44 0.44 0.0 0 1 1246.96 932.45   L 1246.98 936.61   A 0.44 0.44 0.0 0 1 1246.54 937.05   L 1237.21 937.08   A 0.44 0.44 0.0 0 0 1236.77 937.52   L 1236.82 943.28   A 0.44 0.44 0.0 0 0 1237.26 943.72   L 1245.81 943.73   A 0.44 0.44 0.0 0 1 1246.25 944.17   L 1246.24 948.34   A 0.44 0.44 0.0 0 1 1245.80 948.78   L 1237.21 948.78   A 0.44 0.44 0.0 0 0 1236.77 949.22   Z"
       id="path77" />
    <path
       fill="#000000"
       d="   M 1288.17 955.94   L 1298.02 955.96   A 0.44 0.44 0.0 0 1 1298.46 956.40   L 1298.46 960.57   A 0.44 0.44 0.0 0 1 1298.02 961.01   L 1281.68 961.01   A 0.44 0.44 0.0 0 1 1281.24 960.57   L 1281.24 932.44   A 0.44 0.44 0.0 0 1 1281.68 932.00   L 1287.31 932.02   A 0.44 0.44 0.0 0 1 1287.75 932.46   L 1287.73 955.50   A 0.44 0.44 0.0 0 0 1288.17 955.94   Z"
       id="path78" />
    <path
       fill="#000000"
       d="   M 1314.16 937.41   L 1314.17 960.67   A 0.34 0.34 0.0 0 1 1313.83 961.01   L 1308.02 961.01   A 0.34 0.34 0.0 0 1 1307.68 960.67   L 1307.69 937.42   A 0.34 0.34 0.0 0 0 1307.35 937.08   L 1299.81 937.06   A 0.34 0.34 0.0 0 1 1299.47 936.72   L 1299.46 932.34   A 0.34 0.34 0.0 0 1 1299.80 932.00   L 1322.11 932.00   A 0.34 0.34 0.0 0 1 1322.45 932.34   L 1322.46 936.72   A 0.34 0.34 0.0 0 1 1322.12 937.06   L 1314.50 937.07   A 0.34 0.34 0.0 0 0 1314.16 937.41   Z"
       id="path79" />
    <path
       fill="#000000"
       d="   M 1333.05 949.17   L 1333.10 960.60   A 0.40 0.40 0.0 0 1 1332.70 961.00   L 1326.95 961.01   A 0.40 0.40 0.0 0 1 1326.55 960.61   L 1326.56 932.39   A 0.40 0.40 0.0 0 1 1326.96 931.99   L 1332.70 932.01   A 0.40 0.40 0.0 0 1 1333.10 932.41   L 1333.06 943.32   A 0.40 0.40 0.0 0 0 1333.46 943.72   L 1344.59 943.72   A 0.40 0.40 0.0 0 0 1344.99 943.32   L 1344.96 932.42   A 0.40 0.40 0.0 0 1 1345.36 932.02   L 1351.10 931.98   A 0.40 0.40 0.0 0 1 1351.50 932.38   L 1351.50 960.62   A 0.40 0.40 0.0 0 1 1351.10 961.02   L 1345.35 961.00   A 0.40 0.40 0.0 0 1 1344.95 960.60   L 1345.00 949.19   A 0.40 0.40 0.0 0 0 1344.60 948.79   L 1333.45 948.77   A 0.40 0.40 0.0 0 0 1333.05 949.17   Z"
       id="path80" />
  </g>
  <path
     fill="#000000"
     d="   M 753.99 975.19   C 757.10 975.99 759.85 977.11 763.09 977.11   Q 774.30 977.10 785.50 977.11   Q 1055.66 977.20 1353.19 977.18   A 0.57 0.57 0.0 0 1 1353.76 977.75   L 1353.78 979.99   Q 1353.79 980.52 1353.26 980.52   L 611.75 980.51   Q 611.23 980.51 611.23 980.00   L 611.23 977.78   Q 611.23 977.17 611.84 977.17   Q 621.47 977.19 631.25 977.17   Q 634.67 977.16 639.27 975.95   Q 638.80 977.37 641.50 977.36   Q 696.18 977.34 750.86 977.13   Q 752.57 977.12 754.24 976.79   Q 754.79 976.68 755.05 976.47   Q 755.51 976.09 754.95 975.91   Q 754.21 975.67 753.99 975.19   Z"
     id="path83"
     inkscape:label="Line" />
  <g
     id="g104">
    <g
       id="g102"
       inkscape:label="1920">
      <path
         fill="#000000"
         d="   M 1080.04 1016.09   A 0.65 0.64 -4.1 0 0 1079.32 1015.47   C 1074.49 1015.97 1067.45 1014.86 1064.25 1010.56   C 1061.54 1006.92 1061.72 1000.99 1064.27 997.30   C 1067.17 993.10 1072.24 991.99 1077.10 992.84   C 1081.30 993.57 1083.89 996.24 1085.08 1000.24   C 1087.52 1008.43 1088.05 1017.26 1084.66 1024.61   C 1080.96 1032.66 1068.89 1031.56 1063.79 1025.88   Q 1063.39 1025.44 1063.75 1024.97   L 1065.79 1022.27   Q 1066.16 1021.79 1066.65 1022.15   C 1070.35 1024.85 1077.60 1026.64 1079.43 1020.73   Q 1080.10 1018.57 1080.04 1016.09   Z   M 1079.08 1002.94   C 1077.44 996.19 1068.02 997.90 1068.96 1005.14   C 1069.62 1010.23 1075.17 1010.45 1079.26 1010.47   Q 1079.79 1010.47 1079.81 1009.94   Q 1079.94 1006.48 1079.08 1002.94   Z"
         id="path85" />
      <path
         fill="#000000"
         d="   M 1124.58 1005.99   C 1126.12 996.53 1132.87 990.67 1142.65 993.14   C 1151.84 995.46 1153.96 1007.03 1153.00 1015.45   C 1151.94 1024.78 1145.85 1031.67 1136.09 1030.09   C 1124.94 1028.28 1123.02 1015.63 1124.58 1005.99   Z   M 1139.04 998.75   C 1129.78 997.91 1130.58 1013.02 1131.81 1018.29   C 1132.86 1022.77 1136.68 1025.28 1141.04 1023.68   C 1147.56 1021.31 1146.62 1009.14 1145.19 1004.08   Q 1143.80 999.18 1139.04 998.75   Z"
         id="path86" />
      <path
         fill="#000000"
         d="   M 1045.80 1000.27   L 1039.73 1002.09   Q 1038.78 1002.37 1038.54 1001.41   L 1037.52 997.27   Q 1037.31 996.43 1038.14 996.15   C 1042.68 994.63 1047.19 992.56 1052.08 993.17   Q 1052.60 993.24 1052.60 993.76   L 1052.59 1029.49   Q 1052.59 1029.82 1052.26 1029.82   L 1046.77 1029.80   Q 1046.50 1029.80 1046.50 1029.52   L 1046.49 1000.79   Q 1046.49 1000.07 1045.80 1000.27   Z"
         id="path87" />
      <path
         fill="#000000"
         d="   M 1105.31 1024.19   L 1117.99 1024.21   A 0.28 0.28 0.0 0 1 1118.27 1024.49   L 1118.26 1029.27   Q 1118.26 1029.79 1117.73 1029.79   L 1096.24 1029.79   Q 1095.69 1029.79 1095.69 1029.24   L 1095.67 1025.10   Q 1095.66 1024.64 1095.97 1024.29   Q 1100.27 1019.33 1104.63 1014.35   C 1107.65 1010.92 1110.20 1006.72 1108.98 1002.44   C 1107.53 997.37 1099.88 999.24 1097.00 1001.68   A 0.70 0.70 0.0 0 1 1095.97 1001.53   L 1094.19 998.86   Q 1093.82 998.31 1094.25 997.79   Q 1097.55 993.80 1102.31 993.23   C 1114.16 991.82 1119.46 1002.37 1113.87 1012.16   C 1111.46 1016.38 1108.25 1019.88 1105.00 1023.49   Q 1104.37 1024.18 1105.31 1024.19   Z"
         id="path88" />
    </g>
    <g
       id="g103"
       inkscape:label="Founded">
      <path
         fill="#000000"
         d="   M 845.0639 1016.9477   A 12.06 12.06 0.0 0 1 833.0883 1029.0916   L 830.7884 1029.1077   A 12.06 12.06 0.0 0 1 818.6445 1017.1322   L 818.6161 1013.0723   A 12.06 12.06 0.0 0 1 830.5917 1000.9284   L 832.8916 1000.9123   A 12.06 12.06 0.0 0 1 845.0355 1012.8878   L 845.0639 1016.9477   Z   M 831.8400 1024.3400   A 9.33 7.56 90.0 0 0 839.4000 1015.0100   A 9.33 7.56 90.0 0 0 831.8400 1005.6800   A 9.33 7.56 90.0 0 0 824.2800 1015.0100   A 9.33 7.56 90.0 0 0 831.8400 1024.3400   Z"
         id="path90" />
      <path
         fill="#000000"
         d="   M 803.52 1012.97   L 814.33 1012.99   A 0.37 0.37 0.0 0 1 814.70 1013.36   L 814.68 1017.16   A 0.37 0.37 0.0 0 1 814.31 1017.53   L 803.56 1017.54   A 0.37 0.37 0.0 0 0 803.19 1017.91   L 803.20 1028.37   A 0.37 0.37 0.0 0 1 802.83 1028.74   L 797.57 1028.77   A 0.37 0.37 0.0 0 1 797.20 1028.40   L 797.19 1001.62   A 0.37 0.37 0.0 0 1 797.56 1001.25   L 816.04 1001.25   A 0.37 0.37 0.0 0 1 816.41 1001.62   L 816.43 1005.96   A 0.37 0.37 0.0 0 1 816.06 1006.33   L 803.55 1006.34   A 0.37 0.37 0.0 0 0 803.18 1006.71   L 803.15 1012.60   A 0.37 0.37 0.0 0 0 803.52 1012.97   Z"
         id="path91" />
      <path
         fill="#000000"
         d="   M 860.93 1024.20   C 863.85 1024.24 866.37 1022.83 866.45 1019.71   Q 866.66 1011.23 866.53 1001.73   A 0.47 0.46 -0.6 0 1 867.00 1001.26   L 872.04 1001.25   Q 872.49 1001.25 872.50 1001.70   Q 872.67 1011.19 872.41 1019.74   C 872.26 1024.63 869.29 1028.16 864.41 1028.99   C 857.56 1030.15 850.06 1028.41 849.47 1020.23   Q 849.06 1014.63 849.31 1001.64   Q 849.32 1001.26 849.70 1001.26   L 854.94 1001.25   Q 855.22 1001.25 855.23 1001.54   Q 855.27 1009.51 855.24 1018.50   Q 855.23 1024.12 860.93 1024.20   Z"
         id="path92" />
      <path
         fill="#000000"
         d="   M 894.18 1019.37   Q 894.55 1019.98 894.55 1019.27   L 894.45 1001.53   Q 894.44 1001.26 894.72 1001.26   L 899.73 1001.25   Q 900.22 1001.25 900.22 1001.73   L 900.22 1028.02   Q 900.22 1028.75 899.48 1028.75   L 894.88 1028.75   Q 894.16 1028.75 893.78 1028.13   L 882.94 1010.37   Q 882.80 1010.14 882.81 1010.41   L 882.99 1028.24   Q 882.99 1028.73 882.51 1028.73   L 877.59 1028.77   A 0.43 0.43 0.0 0 1 877.16 1028.34   L 877.16 1001.80   Q 877.16 1001.26 877.70 1001.26   L 882.58 1001.25   Q 883.25 1001.25 883.59 1001.82   L 894.18 1019.37   Z"
         id="path93" />
      <path
         fill="#000000"
         d="   M 905.59 1001.81   A 0.54 0.54 0.0 0 1 906.13 1001.27   L 917.70 1001.21   A 12.35 12.05 89.7 0 1 929.81 1013.50   L 929.83 1016.38   A 12.35 12.05 89.7 0 1 917.84 1028.79   L 906.27 1028.85   A 0.54 0.54 0.0 0 1 905.73 1028.31   L 905.59 1001.81   Z   M 911.67 1006.79   L 911.61 1023.25   A 0.47 0.47 0.0 0 0 912.08 1023.72   L 916.68 1023.74   A 7.28 7.13 -89.8 0 0 923.84 1016.48   L 923.84 1013.64   A 7.28 7.13 -89.8 0 0 916.74 1006.34   L 912.14 1006.32   A 0.47 0.47 0.0 0 0 911.67 1006.79   Z"
         id="path94" />
      <path
         fill="#000000"
         d="   M 940.05 1023.68   L 953.99 1023.69   A 0.37 0.37 0.0 0 1 954.36 1024.06   L 954.36 1028.38   A 0.37 0.37 0.0 0 1 953.99 1028.75   L 934.05 1028.76   A 0.37 0.37 0.0 0 1 933.68 1028.39   L 933.68 1001.63   A 0.37 0.37 0.0 0 1 934.05 1001.26   L 953.76 1001.25   A 0.37 0.37 0.0 0 1 954.13 1001.62   L 954.12 1005.96   A 0.37 0.37 0.0 0 1 953.75 1006.33   L 940.04 1006.33   A 0.37 0.37 0.0 0 0 939.67 1006.70   L 939.66 1012.11   A 0.37 0.37 0.0 0 0 940.03 1012.48   L 952.59 1012.48   A 0.37 0.37 0.0 0 1 952.96 1012.85   L 953.00 1016.66   A 0.37 0.37 0.0 0 1 952.63 1017.03   L 940.01 1017.03   A 0.37 0.37 0.0 0 0 939.64 1017.40   L 939.68 1023.31   A 0.37 0.37 0.0 0 0 940.05 1023.68   Z"
         id="path95" />
      <path
         fill="#000000"
         d="   M 958.60 1001.77   A 0.53 0.53 0.0 0 1 959.13 1001.24   L 970.69 1001.22   A 12.27 12.07 89.9 0 1 982.78 1013.47   L 982.78 1016.51   A 12.27 12.07 89.9 0 1 970.73 1028.80   L 959.17 1028.82   A 0.53 0.53 0.0 0 1 958.64 1028.29   L 958.60 1001.77   Z   M 964.55 1007.07   L 964.49 1022.97   A 0.75 0.75 0.0 0 0 965.24 1023.72   L 969.78 1023.74   A 7.36 7.01 -89.8 0 0 976.82 1016.40   L 976.82 1013.72   A 7.36 7.01 -89.8 0 0 969.84 1006.34   L 965.30 1006.32   A 0.75 0.75 0.0 0 0 964.55 1007.07   Z"
         id="path96" />
    </g>
    <g
       id="g101"
       inkscape:label="Ta'asast">
      <path
         fill="#000000"
         d="   M 1325.02 992.22   Q 1326.44 992.85 1328.25 992.50   Q 1329.17 992.32 1328.87 993.21   L 1328.21 995.17   A 0.76 0.75 9.0 0 1 1327.49 995.69   Q 1325.03 995.68 1323.81 997.83   A 0.66 0.66 0.0 0 1 1322.64 997.79   Q 1321.89 996.24 1322.73 994.70   Q 1323.00 994.21 1322.77 993.70   C 1321.12 990.08 1324.18 987.57 1327.74 988.14   A 1.43 1.42 -78.8 0 1 1328.90 989.88   L 1328.76 990.46   Q 1328.48 991.63 1327.33 991.25   Q 1326.13 990.85 1325.04 991.29   Q 1323.93 991.73 1325.02 992.22   Z"
         id="path84" />
      <path
         fill="#000000"
         d="   M 1338.16 1022.71   Q 1337.75 1019.69 1336.28 1016.51   Q 1336.17 1016.27 1336.35 1016.09   L 1340.61 1011.86   A 0.18 0.17 54.4 0 1 1340.89 1011.91   Q 1345.12 1021.14 1341.17 1029.72   Q 1340.92 1030.26 1340.34 1030.26   Q 1335.37 1030.26 1329.72 1030.29   C 1326.73 1030.31 1324.07 1028.11 1323.91 1025.25   Q 1323.36 1014.95 1322.82 1004.92   A 3.39 3.38 66.7 0 1 1323.86 1002.30   L 1327.84 998.47   Q 1328.66 997.67 1328.66 998.82   L 1328.67 1021.81   Q 1328.67 1023.69 1330.56 1023.69   L 1337.30 1023.69   Q 1338.29 1023.69 1338.16 1022.71   Z"
         id="path89" />
      <path
         fill="#000000"
         d="   M 1336.94 1006.78   L 1335.78 1008.00   A 0.92 0.92 0.0 0 1 1334.48 1008.02   L 1332.05 1005.68   A 0.81 0.81 0.0 0 1 1332.04 1004.52   L 1334.54 1001.99   A 0.71 0.71 0.0 0 1 1335.54 1001.98   L 1337.10 1003.49   Q 1337.58 1003.95 1338.04 1003.47   L 1339.35 1002.10   Q 1340.00 1001.43 1340.66 1002.09   L 1343.01 1004.48   Q 1343.55 1005.02 1343.03 1005.60   Q 1342.05 1006.70 1340.87 1007.88   Q 1339.67 1009.08 1338.42 1006.95   Q 1337.79 1005.88 1336.94 1006.78   Z"
         id="path97" />
      <path
         fill="#000000"
         d="   M 1222.94 1009.82   L 1221.61 1011.20   A 0.79 0.79 0.0 0 1 1220.49 1011.21   L 1217.95 1008.71   A 0.79 0.79 0.0 0 1 1217.94 1007.60   L 1220.42 1005.05   A 0.79 0.79 0.0 0 1 1221.56 1005.05   L 1222.93 1006.46   A 0.79 0.79 0.0 0 0 1224.06 1006.47   L 1225.48 1005.03   A 0.79 0.79 0.0 0 1 1226.61 1005.04   L 1229.06 1007.60   A 0.79 0.79 0.0 0 1 1229.04 1008.71   L 1226.50 1011.21   A 0.79 0.79 0.0 0 1 1225.37 1011.19   L 1224.09 1009.83   A 0.79 0.79 0.0 0 0 1222.94 1009.82   Z"
         id="path98" />
      <path
         fill="#000000"
         d="   M 1266.39 1023.26   Q 1266.35 1023.68 1266.77 1023.68   L 1273.42 1023.69   A 0.36 0.36 0.0 0 0 1273.78 1023.29   Q 1273.44 1019.61 1272.06 1016.96   A 1.17 1.16 54.0 0 1 1272.27 1015.60   L 1275.72 1012.12   Q 1276.37 1011.47 1276.75 1012.31   Q 1279.04 1017.33 1278.55 1022.97   Q 1278.49 1023.69 1279.21 1023.69   L 1289.61 1023.68   A 0.40 0.40 0.0 0 0 1290.01 1023.24   Q 1289.64 1019.68 1288.34 1017.00   Q 1287.96 1016.22 1288.56 1015.60   L 1291.94 1012.12   Q 1292.61 1011.43 1293.01 1012.31   Q 1295.43 1017.73 1294.78 1023.37   Q 1294.74 1023.67 1295.05 1023.67   L 1302.72 1023.68   Q 1303.01 1023.68 1302.98 1023.38   Q 1302.63 1019.84 1301.23 1016.96   Q 1300.89 1016.26 1301.43 1015.69   L 1304.91 1012.06   A 0.61 0.61 0.0 0 1 1305.92 1012.25   Q 1308.23 1017.74 1307.66 1023.19   A 0.44 0.44 0.0 0 0 1308.10 1023.68   L 1314.50 1023.69   Q 1315.06 1023.70 1315.01 1023.13   Q 1314.70 1019.68 1313.11 1016.40   A 0.42 0.42 0.0 0 1 1313.19 1015.92   L 1317.43 1011.71   A 0.20 0.20 0.0 0 1 1317.75 1011.77   C 1320.38 1017.21 1320.83 1024.15 1318.00 1029.66   Q 1317.69 1030.27 1317.01 1030.27   L 1308.65 1030.27   Q 1307.98 1030.27 1307.63 1029.70   L 1307.02 1028.73   Q 1306.60 1028.06 1306.28 1028.79   L 1305.86 1029.74   Q 1305.63 1030.27 1305.05 1030.27   L 1295.64 1030.26   Q 1294.95 1030.26 1294.64 1029.65   L 1294.09 1028.58   Q 1293.80 1028.00 1293.51 1028.58   L 1292.95 1029.71   Q 1292.67 1030.27 1292.04 1030.27   L 1279.49 1030.27   Q 1278.75 1030.27 1278.34 1029.65   L 1277.71 1028.72   Q 1277.29 1028.08 1277.02 1028.80   L 1276.67 1029.77   Q 1276.48 1030.27 1275.95 1030.27   L 1267.35 1030.26   Q 1266.82 1030.26 1266.51 1029.83   L 1265.76 1028.78   Q 1265.23 1028.03 1264.90 1028.89   L 1264.58 1029.72   Q 1264.37 1030.27 1263.78 1030.27   L 1254.46 1030.27   A 1.21 1.19 72.9 0 1 1253.46 1029.73   L 1252.77 1028.70   Q 1252.30 1028.00 1252.01 1028.79   L 1251.66 1029.77   Q 1251.48 1030.27 1250.95 1030.27   L 1238.28 1030.27   Q 1237.75 1030.27 1237.44 1029.83   L 1236.67 1028.76   Q 1236.17 1028.06 1235.84 1028.85   L 1235.48 1029.75   Q 1235.25 1030.31 1234.63 1030.30   Q 1226.66 1030.18 1217.96 1030.32   C 1212.28 1030.41 1208.52 1026.34 1208.68 1020.70   Q 1208.78 1017.28 1211.18 1014.91   Q 1211.61 1014.49 1212.22 1014.49   L 1213.22 1014.51   Q 1213.90 1014.51 1213.48 1015.04   Q 1212.05 1016.81 1212.50 1019.26   C 1213.12 1022.62 1216.15 1023.81 1219.27 1023.74   Q 1225.48 1023.60 1231.78 1023.72   Q 1232.71 1023.74 1232.58 1022.82   Q 1232.10 1019.48 1230.93 1017.04   Q 1230.57 1016.30 1231.14 1015.71   L 1234.57 1012.15   Q 1235.19 1011.51 1235.57 1012.31   Q 1237.87 1017.27 1237.36 1022.98   A 0.65 0.64 -87.5 0 0 1238.00 1023.69   L 1248.05 1023.69   Q 1248.75 1023.69 1248.71 1022.99   Q 1248.53 1019.90 1246.96 1016.76   A 0.85 0.83 53.9 0 1 1247.10 1015.81   L 1250.90 1011.91   Q 1251.32 1011.48 1251.58 1012.02   Q 1254.13 1017.26 1253.53 1023.14   Q 1253.47 1023.69 1254.02 1023.69   L 1261.20 1023.68   Q 1261.73 1023.68 1261.68 1023.16   Q 1261.33 1019.60 1259.92 1016.89   Q 1259.55 1016.17 1260.12 1015.59   L 1263.69 1012.00   Q 1264.28 1011.40 1264.61 1012.17   Q 1267.00 1017.62 1266.39 1023.26   Z"
         id="path99" />
    </g>
  </g>
</svg>
